<svg xmlns="http://www.w3.org/2000/svg" width="24" height="24" viewBox="0 0 24 24"><defs><style>.a{fill:none;}.b,.c{fill:#fff;}.c{opacity:0.4;}</style></defs><rect class="a" width="24" height="24"/><g transform="translate(1 4)"><path class="b" d="M0,2.739C0,4.916,2.93,5.46,6.361,5.46c3.45,0,6.361-.564,6.361-2.739S9.792,0,6.361,0C2.911,0,0,.564,0,2.739Z" transform="translate(4.588 10.54)"/><path class="c" d="M8.419,4.234A4.209,4.209,0,1,0,0,4.234a4.209,4.209,0,1,0,8.419,0Z" transform="translate(6.74)"/><path class="c" d="M.8,0A3.587,3.587,0,0,0,.092.073.136.136,0,0,0,.01.122a.1.1,0,0,0,.017.11A5.807,5.807,0,0,1,1.094,3.6,5.762,5.762,0,0,1,.11,6.844a.158.158,0,0,0,.107.244A3.282,3.282,0,0,0,.7,7.135,3.513,3.513,0,0,0,4.225,4.513,3.574,3.574,0,0,0,.8,0Z" transform="translate(15.863 0.707)"/><path class="b" d="M3.276.286A15.555,15.555,0,0,0,.033,0,.037.037,0,0,0,0,.027.046.046,0,0,0,.029.075,4.451,4.451,0,0,1,2.684,4.456a.181.181,0,0,0,.2.205c.577-.083,2.06-.4,2.521-1.4a1.922,1.922,0,0,0,0-1.67A2.755,2.755,0,0,0,3.276.286Z" transform="translate(16.402 9.227)"/><path class="c" d="M3.543,0A3.573,3.573,0,0,0,.12,4.513,3.511,3.511,0,0,0,3.644,7.135a3.4,3.4,0,0,0,.484-.047.158.158,0,0,0,.107-.244A5.841,5.841,0,0,1,4.318.232a.1.1,0,0,0,.016-.11.129.129,0,0,0-.082-.05A3.514,3.514,0,0,0,3.543,0Z" transform="translate(1.793 0.707)"/><path class="b" d="M.191,1.589a1.918,1.918,0,0,0,0,1.671c.46,1,1.944,1.319,2.521,1.4a.18.18,0,0,0,.2-.205A4.45,4.45,0,0,1,5.569.075.047.047,0,0,0,5.6.027.034.034,0,0,0,5.566,0,15.517,15.517,0,0,0,2.322.285,2.753,2.753,0,0,0,.191,1.589Z" transform="translate(0 9.227)"/></g></svg>