<svg xmlns="http://www.w3.org/2000/svg" width="24" height="24" viewBox="0 0 24 24"><defs><style>.a{fill:none;}.b,.c{fill:#fff;}.c{opacity:0.4;}</style></defs><rect class="a" width="24" height="24"/><g transform="translate(3 2)"><path class="b" d="M12.863,12.743H5.127a5.149,5.149,0,0,1-3.738-1.38A5.147,5.147,0,0,1,0,7.613V0H18V7.674C18,10.8,16.032,12.743,12.863,12.743Zm.177-5.609a.831.831,0,0,0-.81.849.83.83,0,1,0,.82-.849ZM8.98,7.123a.855.855,0,0,0-.81.86.823.823,0,0,0,.812.8H9.02a.808.808,0,0,0,.564-.264.823.823,0,0,0,.216-.6A.814.814,0,0,0,8.98,7.123Zm-4.07,0a.856.856,0,0,0-.811.86.823.823,0,0,0,.812.8h.037a.809.809,0,0,0,.565-.264.835.835,0,0,0-.6-1.4Zm4.07-3.63a.854.854,0,0,0-.81.861.823.823,0,0,0,.812.8H9.02a.823.823,0,0,0,.78-.86A.814.814,0,0,0,8.98,3.493Zm-4.06,0a.854.854,0,0,0-.81.861.821.821,0,0,0,.812.8H4.96a.823.823,0,0,0,.78-.86A.814.814,0,0,0,4.92,3.493Zm8.131.011a.829.829,0,0,0-.81.841v.01a.814.814,0,0,0,.821.8h.019a.79.79,0,0,0,.557-.247.838.838,0,0,0,.233-.6A.828.828,0,0,0,13.051,3.5Z" transform="translate(0 7.257)"/><path class="c" d="M.155,3.64A4.591,4.591,0,0,1,4.541,0h8.911a4.639,4.639,0,0,1,4.386,3.64,15.892,15.892,0,0,1,.154,2.127H0A15.855,15.855,0,0,1,.155,3.64Z" transform="translate(0.003 1.49)"/><path class="b" d="M1.521,3.82V.771A.748.748,0,0,0,.761,0,.748.748,0,0,0,0,.771V3.82a.747.747,0,0,0,.761.77A.747.747,0,0,0,1.521,3.82Z" transform="translate(4.544)"/><path class="b" d="M1.521,3.82V.771A.754.754,0,0,0,.761,0,.748.748,0,0,0,0,.771V3.82a.747.747,0,0,0,.761.77A.753.753,0,0,0,1.521,3.82Z" transform="translate(11.934)"/></g></svg>