<svg xmlns="http://www.w3.org/2000/svg" width="24" height="24" viewBox="0 0 24 24"><defs><style>.a{fill:none;}.b,.c{fill:#fff;}.c{opacity:0.4;}</style></defs><rect class="a" width="24" height="24"/><g transform="translate(2 2)"><path class="b" d="M12.662,18H5.346A5.415,5.415,0,0,1,1.41,16.588,5.4,5.4,0,0,1,0,12.661V5.356A5.428,5.428,0,0,1,1.41,1.42,5.4,5.4,0,0,1,5.346,0h7.967a3.909,3.909,0,0,0-.07.738A4.029,4.029,0,0,0,17.27,4.759a4.142,4.142,0,0,0,.73-.07v7.972a5.405,5.405,0,0,1-1.409,3.927A5.4,5.4,0,0,1,12.662,18ZM7.222,7.079a.752.752,0,0,0-.1.006.741.741,0,0,0-.493.29L3.676,11.186a.723.723,0,0,0-.158.457.739.739,0,0,0,1.363.43l2.47-3.2,2.743,2.152a.747.747,0,0,0,.464.163.741.741,0,0,0,.592-.3l2.858-3.687V7.191a.75.75,0,0,0-.14-1.045.73.73,0,0,0-1.038.149L10.42,9.4,7.677,7.235A.742.742,0,0,0,7.222,7.079Z" transform="translate(0 2)"/><circle class="c" cx="2.5" cy="2.5" r="2.5" transform="translate(15)"/></g></svg>