<svg xmlns="http://www.w3.org/2000/svg" width="24" height="24" viewBox="0 0 24 24"><defs><style>.a{fill:none;}.b,.c{fill:#fff;}.b{opacity:0.4;}</style></defs><rect class="a" width="24" height="24"/><path class="b" d="M5.67,0C2.28,0,0,2.38,0,5.92v8.17C0,17.62,2.28,20,5.67,20h8.67C17.73,20,20,17.62,20,14.09V5.92C20,2.38,17.73,0,14.34,0Z" transform="translate(2 2)"/><path class="c" d="M8.959,1.2a1.2,1.2,0,1,1,1.2,1.2A1.2,1.2,0,0,1,8.959,1.2Zm-4.479,0a1.2,1.2,0,1,1,1.2,1.2A1.2,1.2,0,0,1,4.479,1.2ZM0,1.2a1.2,1.2,0,1,1,1.2,1.2A1.2,1.2,0,0,1,0,1.2Z" transform="translate(6.323 10.804)"/></svg>